<?xml version="1.0" encoding="UTF-8" standalone="no"?>
<!-- Creator: CorelDRAW X7 -->

<svg
   xml:space="preserve"
   width="1200"
   height="1920"
   version="1.0"
   style="clip-rule:evenodd;fill-rule:evenodd;image-rendering:optimizeQuality;shape-rendering:geometricPrecision;text-rendering:geometricPrecision"
   viewBox="0 0 12500.423 20000.173"
   id="svg55"
   sodipodi:docname="backgroundImg.svg"
   inkscape:version="1.1 (1:1.1+202105261517+ce6663b3b7)"
   xmlns:inkscape="http://www.inkscape.org/namespaces/inkscape"
   xmlns:sodipodi="http://sodipodi.sourceforge.net/DTD/sodipodi-0.dtd"
   xmlns="http://www.w3.org/2000/svg"
   xmlns:svg="http://www.w3.org/2000/svg"><sodipodi:namedview
   id="namedview57"
   pagecolor="#ffffff"
   bordercolor="#666666"
   borderopacity="1.0"
   inkscape:pageshadow="2"
   inkscape:pageopacity="0.0"
   inkscape:pagecheckerboard="0"
   inkscape:document-units="px"
   showgrid="false"
   units="px"
   inkscape:zoom="0.44542701"
   inkscape:cx="396.24899"
   inkscape:cy="560.13667"
   inkscape:window-width="1366"
   inkscape:window-height="744"
   inkscape:window-x="1366"
   inkscape:window-y="0"
   inkscape:window-maximized="1"
   inkscape:current-layer="Layer_x0020_1" />
 <defs
   id="defs4">
  <style
   type="text/css"
   id="style2">
   <![CDATA[
    .fil16 {fill:#B55134}
    .fil3 {fill:#CC412E}
    .fil13 {fill:#CD422B}
    .fil5 {fill:#CD422D}
    .fil1 {fill:#D74D33}
    .fil11 {fill:#D95737}
    .fil6 {fill:#E57739}
    .fil15 {fill:#E89455}
    .fil4 {fill:#EA6F34}
    .fil0 {fill:#EDD6AD}
    .fil10 {fill:#EED7AE}
    .fil14 {fill:#F28E46}
    .fil2 {fill:#F3DAB2}
    .fil8 {fill:#F3E3C9}
    .fil7 {fill:#F3E4C7}
    .fil9 {fill:#F4E3C3}
    .fil12 {fill:#F8EBBF}
   ]]>
  </style>
 </defs>
 <g
   id="Layer_x0020_1"
   inkscape:label="Layer 1"
   inkscape:groupmode="layer">
  <metadata
   id="CorelCorpID_0Corel-Layer" />
  <g
   id="_2369200586944"
   transform="matrix(1.5956628,0,0,1.5488791,-346.25883,944.56435)">
   <rect
   class="fil0"
   x="217"
   y="-610"
   width="7833"
   height="12913"
   id="rect7" />
   <path
   class="fil1"
   d="m 217,9259 v 2741 c 170,12 204,56 500,61 1081,19 2369,-252 3396,-512 322,-81 592,-147 912,-203 l 484,-64 c 173,-11 347,-44 528,-47 482,-8 1087,11 1554,107 144,29 307,84 460,123 V 9872 c -497,-6 -1157,-165 -1637,-254 -263,-49 -531,-98 -792,-150 -136,-27 -723,-109 -794,-154 l -51,-1 c -168,-15 -390,-59 -566,-88 -906,-151 -1998,-231 -2911,-127 -542,61 -560,67 -1083,161 z"
   id="path9" />
   <path
   class="fil2"
   d="m 1561,6937 c 274,-1 753,-7 753,-7 -17,-61 -44,-136 -56,-195 -109,-538 -22,-1218 416,-1662 312,-317 681,-682 1376,-720 124,-7 302,10 441,19 226,48 812,262 916,451 82,40 289,295 343,378 265,515 384,778 288,1421 -16,110 -52,174 -64,283 l -12,33 c 20,13 -53,9 392,25 300,10 334,8 334,8 82,-673 120,-1314 -219,-1933 -28,-51 -13,13 -97,-151 -227,-446 -654,-733 -1071,-971 -135,-74 -190,-77 -279,-110 -313,-113 -605,-186 -985,-159 -166,12 -420,39 -580,77 -102,25 -408,138 -704,317 -424,257 -812,672 -1035,1156 -240,520 -290,1178 -157,1740 z"
   id="path11" />
   <path
   class="fil3"
   d="m 217,12000 v 303 h 7834 v -838 c -153,-39 -316,-94 -460,-123 -467,-96 -1072,-115 -1554,-107 -181,3 -355,36 -528,47 l -484,64 c -320,56 -590,122 -912,203 -1027,260 -2315,531 -3396,512 -296,-5 -330,-49 -500,-61 z"
   id="path13" />
   <path
   class="fil4"
   d="m 2887,8535 c 33,36 140,41 207,75 l 299,74 593,160 755,163 c 77,16 165,22 241,44 252,31 497,80 749,111 466,56 1944,260 2320,264 V 8261 c -889,7 -1782,29 -2667,42 -465,8 -1802,18 -2254,109 -108,22 -196,36 -196,141 z"
   id="path15" />
   <path
   class="fil5"
   d="m 4770,7572 c 95,-5 334,119 404,163 145,92 205,211 6,323 -443,251 -1495,54 -2066,91 -626,41 -579,317 -227,386 l 47,18 c 0,-105 88,-119 196,-141 452,-91 1789,-101 2254,-109 885,-13 1778,-35 2667,-42 v -424 c -321,27 -646,-13 -953,-35 -284,-21 -618,-67 -899,-105 -579,-78 -1173,-158 -1751,-246 l -5,20 c 88,21 270,50 327,101 z"
   id="path17" />
   <path
   class="fil6"
   d="m 2655,6908 c -69,47 -2164,22 -2438,22 v 59 c 370,10 3156,72 3264,4 l -179,7 c 136,-71 511,-93 535,-215 l 5,-72 c 0,-1 1,-5 3,-8 -155,-97 -427,51 -560,110 -100,45 -146,71 -278,82 -112,9 -243,27 -352,11 z"
   id="path19" />
   <path
   class="fil7"
   d="m 1805,2474 c -63,43 -33,78 -60,137 -165,-21 -36,-40 -179,15 -58,22 -15,12 -56,-1 -115,-36 -167,-5 -162,119 48,26 29,27 80,35 l 1539,-4 c -21,-59 -15,-20 -56,-59 -28,-25 -11,-22 -27,-66 -103,0 -370,-15 -454,12 -69,22 -134,106 -165,-25 l -51,-21 c -87,-10 -86,20 -127,-118 l -23,-10 c -32,-57 -54,-71 -130,-80 -64,-7 -110,18 -129,66 z"
   id="path21" />
   <path
   class="fil8"
   d="m 6620,3425 c -8,42 -19,104 -98,60 -59,-33 -51,-91 -127,-21 l -233,35 c -76,14 -62,38 -67,68 l 74,29 c 119,14 -32,-22 163,-22 l 995,20 -20,-144 c -29,1 -58,76 -111,-1 -63,-92 3,-121 -72,-180 -45,-37 -23,-37 -86,-50 -100,-21 -109,22 -210,8 -67,1 -220,128 -208,198 z"
   id="path23" />
   <path
   class="fil9"
   d="m 2681,2562 c 13,81 -101,80 -77,-35 8,-37 21,-48 51,-50 61,-5 145,-79 189,17 21,46 -9,82 -32,126 l -117,-3 c -13,-31 -9,0 -14,-55 z m -214,27 c -91,-11 -98,8 -151,62 -46,-7 -15,8 -51,-14 31,131 96,47 165,25 84,-27 351,-12 454,-12 16,44 -1,41 27,66 41,39 35,0 56,59 l -1539,4 c -51,-8 -32,-9 -80,-35 -93,-14 -201,-3 -297,0 -158,5 -228,-14 -237,75 60,25 529,6 598,7 208,3 416,-7 625,-2 181,4 1187,-18 1246,-4 3,-3 7,-6 9,-7 69,-67 49,-101 -61,-93 -147,10 -59,-34 -153,-79 -78,43 -17,88 -95,80 -39,-4 -59,-58 -71,-96 -58,-186 6,-102 -113,-230 -195,2 -210,71 -276,216 -43,-7 -20,2 -56,-22 z"
   id="path25" />
   <path
   class="fil9"
   d="m 6828,3227 c 101,14 110,-29 210,-8 63,13 41,13 86,50 75,59 9,88 72,180 53,77 82,2 111,1 l 20,144 -995,-20 c -195,0 -44,36 -163,22 l -74,-29 c 5,-30 -9,-54 67,-68 l 233,-35 c 76,-70 68,-12 127,21 79,44 90,-18 98,-60 -19,8 -36,12 -56,19 -130,-148 -219,-10 -250,24 -66,-25 -170,-17 -240,8 -52,18 -156,85 -107,137 47,24 1678,53 1806,27 l -8,-93 c -133,-27 -213,15 -338,5 l -36,-6 c -107,-53 -5,-125 -106,-151 -74,-20 -57,50 -75,-38 -9,-45 4,-48 -17,-98 -55,-133 -269,-93 -346,-47 -3,2 -8,10 -10,7 -1,-3 -6,5 -9,8 z"
   id="path27" />
   <path
   class="fil10"
   d="m 2799,2395 c 119,128 55,44 113,230 12,38 32,92 71,96 78,8 17,-37 95,-80 94,45 6,89 153,79 110,-8 130,26 61,93 -2,1 -6,4 -9,7 7,44 123,11 268,11 v -222 h -209 v 97 c -19,0 -51,2 -70,1 -41,-3 -71,-6 -97,-31 -3,-3 -5,-6 -7,-8 l -17,-33 c -14,-20 -42,-3 -46,-108 -2,-44 1,-96 1,-141 -80,0 -131,6 -208,-13 -25,29 -17,-15 -24,36 -7,45 -9,4 10,19 0,-53 -39,-42 -85,-33 z"
   id="path29" />
   <path
   class="fil11"
   d="m 3890,7046 c -64,20 -89,28 -129,75 3,119 180,180 289,225 90,38 295,109 393,125 l 5,-20 c 578,88 1172,168 1751,246 281,38 615,84 899,105 307,22 632,62 953,35 0,-290 0,-579 0,-869 -847,13 -1886,66 -2715,-132 -68,-17 -164,-40 -222,-69 -75,-37 -92,-77 -191,-87 -34,9 -11,-4 -30,16 48,29 50,72 38,101 -30,87 -98,106 -194,137 -91,29 -163,42 -262,54 -189,23 -369,28 -550,53 -12,1 -23,2 -35,5 z"
   id="path31" />
   <path
   class="fil0"
   d="m 1523,6608 c 0,-120 -23,-205 -23,-333 0,-127 23,-212 23,-333 -54,1 -108,14 -181,14 v 639 c 72,0 128,13 181,13 z"
   id="path33" />
   <path
   class="fil10"
   d="m 2087,2498 c 41,138 40,108 127,118 l 51,21 c 36,22 5,7 51,14 53,-54 60,-73 151,-62 -19,-93 -41,-105 -139,-105 v -98 l -86,-6 c -3,2 -6,4 -9,6 -34,33 -14,-3 -30,56 -1,-4 -38,-27 0,-42 l -15,79 c -1,4 -3,8 -4,11 l -9,21 c -46,-22 -38,52 -41,-69 -42,33 -26,13 -47,56 z"
   id="path35" />
   <path
   class="fil12"
   d="m 2209,6081 c -18,336 -12,353 49,654 10,48 51,156 43,165 l 23,30 c 109,16 571,-24 683,-33 132,-11 178,-37 278,-82 133,-59 405,-207 560,-110 l 83,30 207,94 104,39 c 64,15 122,-24 186,-37 25,-19 186,-85 229,-105 66,-29 195,-100 269,-46 99,10 116,50 191,87 58,29 154,52 222,69 135,32 492,115 626,102 l 12,-33 c 12,-109 48,-173 64,-283 47,-314 38,-651 -61,-938 -97,-279 -240,-524 -422,-726 -361,-400 -873,-628 -1474,-607 -413,15 -826,156 -1170,424 -209,163 -400,415 -530,687 -97,204 -161,420 -172,619 z"
   id="path37" />
   <path
   class="fil10"
   d="m 2190,4490 c 60,-33 38,-26 84,-71 l 257,-241 c -58,-1 -33,-5 -79,-11 l -235,-3 c 0,130 14,125 -16,225 -1,4 -3,7 -4,12 -1,5 -2,8 -3,13 -7,28 -5,48 -4,76 z"
   id="path39" />
   <path
   class="fil10"
   d="m 1805,2474 c 19,-48 65,-73 129,-66 76,9 98,23 130,80 -12,-26 -18,43 -7,-42 1,-3 5,-14 7,-18 l -8,-3 c 0,0 -3,-3 -4,-3 -30,-23 -4,-35 -43,-8 -25,-109 -27,-122 -28,-236 h -194 c 0,344 11,94 39,228 10,52 7,33 -21,68 z"
   id="path41" />
   <path
   class="fil13"
   d="m 3481,6993 c 62,2 126,-12 173,6 48,-24 344,-39 534,-100 -28,-29 -34,-35 -53,-70 l -207,-94 -83,-30 c -2,3 -3,7 -3,8 l -5,72 c -24,122 -399,144 -535,215 z"
   id="path43" />
   <path
   class="fil8"
   d="m 2681,2562 c 5,55 1,24 14,55 l 117,3 c 23,-44 53,-80 32,-126 -44,-96 -128,-22 -189,-17 -30,2 -43,13 -51,50 -24,115 90,116 77,35 z"
   id="path45" />
   <path
   class="fil14"
   d="m 5073,9375 c 201,37 464,76 549,93 261,52 529,101 792,150 480,89 1140,248 1637,254 v -446 c -376,-4 -1854,-208 -2320,-264 -252,-31 -497,-80 -749,-111 -76,-22 -164,-28 -241,-44 l -755,-163 -593,-160 -299,-74 c -67,-34 -174,-39 -207,-75 -352,-69 -399,-345 227,-386 571,-37 1623,160 2066,-91 199,-112 139,-231 -6,-323 -70,-44 -309,-168 -404,-163 -57,-51 -239,-80 -327,-101 -98,-16 -303,-87 -393,-125 -109,-45 -286,-106 -289,-225 40,-47 65,-55 129,-75 193,-30 383,-33 585,-58 99,-12 171,-25 262,-54 96,-31 164,-50 194,-137 12,-29 10,-72 -38,-101 19,-20 -4,-7 30,-16 -74,-54 -203,17 -269,46 -43,20 -204,86 -229,105 -19,78 -171,71 -204,73 l -33,-5 c -306,70 -472,86 -570,86 -89,-1 -222,10 -316,15 -632,32 -2764,-2 -3085,-11 v 2270 c 523,-94 541,-100 1083,-161 913,-104 2005,-24 2911,127 292,49 572,96 862,150 z"
   id="path47" />
   <path
   class="fil15"
   d="m 4239,6868 c -14,39 -6,21 -18,36 72,27 201,-24 204,-73 -64,13 -122,52 -186,37 z"
   id="path49" />
   <path
   class="fil16"
   d="m 4188,6899 33,5 c 10,-6 4,3 18,-36 l -104,-39 c 19,35 25,41 53,70 z"
   id="path51" />
  </g>
 </g>
</svg>
